<svg xmlns="http://www.w3.org/2000/svg" width="902" height="68"><rect x="0" y="14" width="80" height="40" fill="#654d3e" /><text x="40.0" y="34.0" font-size="14" fill="white" text-anchor="middle" alignment-baseline="middle">#654D3E</text><rect x="82" y="14" width="80" height="40" fill="#775741" /><text x="122.0" y="34.0" font-size="14" fill="white" text-anchor="middle" alignment-baseline="middle">#775741</text><rect x="164" y="14" width="80" height="40" fill="#876249" /><text x="204.0" y="34.0" font-size="14" fill="white" text-anchor="middle" alignment-baseline="middle">#876249</text><rect x="246" y="14" width="80" height="40" fill="#946c51" /><text x="286.0" y="34.0" font-size="14" fill="white" text-anchor="middle" alignment-baseline="middle">#946C51</text><rect x="328" y="14" width="80" height="40" fill="#a0765a" /><text x="368.0" y="34.0" font-size="14" fill="white" text-anchor="middle" alignment-baseline="middle">#A0765A</text><rect x="410" y="14" width="80" height="40" fill="#a87f64" /><text x="450.0" y="34.0" font-size="14" fill="black" text-anchor="middle" alignment-baseline="middle">#A87F64</text><rect x="492" y="14" width="80" height="40" fill="#b1886c" /><text x="532.0" y="34.0" font-size="14" fill="black" text-anchor="middle" alignment-baseline="middle">#B1886C</text><rect x="574" y="14" width="80" height="40" fill="#b69279" /><text x="614.0" y="34.0" font-size="14" fill="black" text-anchor="middle" alignment-baseline="middle">#B69279</text><rect x="656" y="14" width="80" height="40" fill="#be9d86" /><text x="696.0" y="34.0" font-size="14" fill="black" text-anchor="middle" alignment-baseline="middle">#BE9D86</text><rect x="738" y="14" width="80" height="40" fill="#c5a691" /><text x="778.0" y="34.0" font-size="14" fill="black" text-anchor="middle" alignment-baseline="middle">#C5A691</text><rect x="820" y="14" width="80" height="40" fill="#c8ac99" /><text x="860.0" y="34.0" font-size="14" fill="black" text-anchor="middle" alignment-baseline="middle">#C8AC99</text></svg>