<svg xmlns="http://www.w3.org/2000/svg" width="1394" height="68"><rect x="0" y="14" width="80" height="40" fill="#FFFFFF" /><text x="40.0" y="34.0" font-size="14" fill="black" text-anchor="middle" alignment-baseline="middle">#FFFFFF</text><rect x="82" y="14" width="80" height="40" fill="#F0F0F0" /><text x="122.0" y="34.0" font-size="14" fill="black" text-anchor="middle" alignment-baseline="middle">#F0F0F0</text><rect x="164" y="14" width="80" height="40" fill="#E0E0E0" /><text x="204.0" y="34.0" font-size="14" fill="black" text-anchor="middle" alignment-baseline="middle">#E0E0E0</text><rect x="246" y="14" width="80" height="40" fill="#D0D0D0" /><text x="286.0" y="34.0" font-size="14" fill="black" text-anchor="middle" alignment-baseline="middle">#D0D0D0</text><rect x="328" y="14" width="80" height="40" fill="#C0C0C0" /><text x="368.0" y="34.0" font-size="14" fill="black" text-anchor="middle" alignment-baseline="middle">#C0C0C0</text><rect x="410" y="14" width="80" height="40" fill="#B0B0B0" /><text x="450.0" y="34.0" font-size="14" fill="black" text-anchor="middle" alignment-baseline="middle">#B0B0B0</text><rect x="492" y="14" width="80" height="40" fill="#A0A0A0" /><text x="532.0" y="34.0" font-size="14" fill="black" text-anchor="middle" alignment-baseline="middle">#A0A0A0</text><rect x="574" y="14" width="80" height="40" fill="#909090" /><text x="614.0" y="34.0" font-size="14" fill="white" text-anchor="middle" alignment-baseline="middle">#909090</text><rect x="656" y="14" width="80" height="40" fill="#808080" /><text x="696.0" y="34.0" font-size="14" fill="white" text-anchor="middle" alignment-baseline="middle">#808080</text><rect x="738" y="14" width="80" height="40" fill="#707070" /><text x="778.0" y="34.0" font-size="14" fill="white" text-anchor="middle" alignment-baseline="middle">#707070</text><rect x="820" y="14" width="80" height="40" fill="#606060" /><text x="860.0" y="34.0" font-size="14" fill="white" text-anchor="middle" alignment-baseline="middle">#606060</text><rect x="902" y="14" width="80" height="40" fill="#505050" /><text x="942.0" y="34.0" font-size="14" fill="white" text-anchor="middle" alignment-baseline="middle">#505050</text><rect x="984" y="14" width="80" height="40" fill="#404040" /><text x="1024.0" y="34.0" font-size="14" fill="white" text-anchor="middle" alignment-baseline="middle">#404040</text><rect x="1066" y="14" width="80" height="40" fill="#303030" /><text x="1106.0" y="34.0" font-size="14" fill="white" text-anchor="middle" alignment-baseline="middle">#303030</text><rect x="1148" y="14" width="80" height="40" fill="#202020" /><text x="1188.0" y="34.0" font-size="14" fill="white" text-anchor="middle" alignment-baseline="middle">#202020</text><rect x="1230" y="14" width="80" height="40" fill="#101010" /><text x="1270.0" y="34.0" font-size="14" fill="white" text-anchor="middle" alignment-baseline="middle">#101010</text><rect x="1312" y="14" width="80" height="40" fill="#000000" /><text x="1352.0" y="34.0" font-size="14" fill="white" text-anchor="middle" alignment-baseline="middle">#000000</text></svg>