<svg xmlns="http://www.w3.org/2000/svg" width="902" height="68"><rect x="0" y="14" width="80" height="40" fill="#373028" /><text x="40.0" y="34.0" font-size="14" fill="white" text-anchor="middle" alignment-baseline="middle">#373028</text><rect x="82" y="14" width="80" height="40" fill="#422811" /><text x="122.0" y="34.0" font-size="14" fill="white" text-anchor="middle" alignment-baseline="middle">#422811</text><rect x="164" y="14" width="80" height="40" fill="#513b2e" /><text x="204.0" y="34.0" font-size="14" fill="white" text-anchor="middle" alignment-baseline="middle">#513B2E</text><rect x="246" y="14" width="80" height="40" fill="#6f503c" /><text x="286.0" y="34.0" font-size="14" fill="white" text-anchor="middle" alignment-baseline="middle">#6F503C</text><rect x="328" y="14" width="80" height="40" fill="#81654f" /><text x="368.0" y="34.0" font-size="14" fill="white" text-anchor="middle" alignment-baseline="middle">#81654F</text><rect x="410" y="14" width="80" height="40" fill="#9d7a54" /><text x="450.0" y="34.0" font-size="14" fill="black" text-anchor="middle" alignment-baseline="middle">#9D7A54</text><rect x="492" y="14" width="80" height="40" fill="#bea07e" /><text x="532.0" y="34.0" font-size="14" fill="black" text-anchor="middle" alignment-baseline="middle">#BEA07E</text><rect x="574" y="14" width="80" height="40" fill="#e5c8a6" /><text x="614.0" y="34.0" font-size="14" fill="black" text-anchor="middle" alignment-baseline="middle">#E5C8A6</text><rect x="656" y="14" width="80" height="40" fill="#e7c1b8" /><text x="696.0" y="34.0" font-size="14" fill="black" text-anchor="middle" alignment-baseline="middle">#E7C1B8</text><rect x="738" y="14" width="80" height="40" fill="#f3dad6" /><text x="778.0" y="34.0" font-size="14" fill="black" text-anchor="middle" alignment-baseline="middle">#F3DAD6</text><rect x="820" y="14" width="80" height="40" fill="#fbf2f3" /><text x="860.0" y="34.0" font-size="14" fill="black" text-anchor="middle" alignment-baseline="middle">#FBF2F3</text></svg>