<svg xmlns="http://www.w3.org/2000/svg" width="820" height="68"><rect x="0" y="14" width="80" height="40" fill="#36251d" /><text x="40.0" y="34.0" font-size="14" fill="white" text-anchor="middle" alignment-baseline="middle">#36251D</text><rect x="82" y="14" width="80" height="40" fill="#48352c" /><text x="122.0" y="34.0" font-size="14" fill="white" text-anchor="middle" alignment-baseline="middle">#48352C</text><rect x="164" y="14" width="80" height="40" fill="#614539" /><text x="204.0" y="34.0" font-size="14" fill="white" text-anchor="middle" alignment-baseline="middle">#614539</text><rect x="246" y="14" width="80" height="40" fill="#755848" /><text x="286.0" y="34.0" font-size="14" fill="white" text-anchor="middle" alignment-baseline="middle">#755848</text><rect x="328" y="14" width="80" height="40" fill="#886958" /><text x="368.0" y="34.0" font-size="14" fill="white" text-anchor="middle" alignment-baseline="middle">#886958</text><rect x="410" y="14" width="80" height="40" fill="#9b7966" /><text x="450.0" y="34.0" font-size="14" fill="black" text-anchor="middle" alignment-baseline="middle">#9B7966</text><rect x="492" y="14" width="80" height="40" fill="#b18972" /><text x="532.0" y="34.0" font-size="14" fill="black" text-anchor="middle" alignment-baseline="middle">#B18972</text><rect x="574" y="14" width="80" height="40" fill="#c29c88" /><text x="614.0" y="34.0" font-size="14" fill="black" text-anchor="middle" alignment-baseline="middle">#C29C88</text><rect x="656" y="14" width="80" height="40" fill="#d4afa3" /><text x="696.0" y="34.0" font-size="14" fill="black" text-anchor="middle" alignment-baseline="middle">#D4AFA3</text><rect x="738" y="14" width="80" height="40" fill="#e6c6bf" /><text x="778.0" y="34.0" font-size="14" fill="black" text-anchor="middle" alignment-baseline="middle">#E6C6BF</text></svg>