<?xml version="1.0" encoding="UTF-8"?>
<svg id="Layer_1" data-name="Layer 1" xmlns="http://www.w3.org/2000/svg" viewBox="0 0 1200 300">
  <defs>
    <style>
      .cls-1 {
        fill: none;
        stroke: #000;
        stroke-linecap: round;
        stroke-linejoin: round;
        stroke-width: 12px;
      }

      .cls-2 {
        stroke-width: 0px;
      }
    </style>
  </defs>
  <g>
    <path class="cls-1" d="m251.98,186.04c5.63,4.09,13.81,8.18,24.04,8.18s18.41-4.09,24.04-8.18"/>
    <line class="cls-1" x1="316.92" y1="120.58" x2="316.92" y2="136.95"/>
    <line class="cls-1" x1="235.11" y1="120.58" x2="235.11" y2="136.95"/>
    <path class="cls-1" d="m276.02,120.58v32.73c0,4.52-3.67,8.18-8.18,8.18"/>
    <g>
      <path class="cls-1" d="m366.02,96.04v-24.55c0-9.04-7.32-16.36-16.36-16.36h-24.55"/>
      <path class="cls-1" d="m226.92,55.13h-24.55c-9.04,0-16.36,7.32-16.36,16.36v24.55"/>
      <path class="cls-1" d="m325.11,235.13h24.55c9.04,0,16.36-7.32,16.36-16.36v-24.55"/>
      <path class="cls-1" d="m186.02,194.22v24.55c0,9.04,7.32,16.36,16.36,16.36h24.55"/>
    </g>
  </g>
  <g>
    <path class="cls-2" d="m451.55,94.52h13.54c2.11,0,3.97.63,5.59,1.88,1.62,1.25,2.43,2.48,2.43,3.67,0,.84-.3,1.54-.9,2.07-.6.54-1.26.81-1.99.81-.94,0-1.79-.42-2.57-1.27s-1.58-1.27-2.43-1.27h-13.36c-1.31,0-1.97.55-1.97,1.64,0,.77.44,1.35,1.31,1.74l15.7,6.99c1.59.7,2.9,1.83,3.92,3.39,1.02,1.56,1.53,3.29,1.53,5.19,0,2.53-.9,4.68-2.69,6.43s-3.83,2.64-6.1,2.64h-11.95c-2.06,0-3.98-.62-5.75-1.86-1.77-1.24-2.65-2.45-2.65-3.62,0-.77.29-1.46.86-2.06.57-.6,1.32-.9,2.23-.9.75,0,1.55.42,2.41,1.27.86.84,2.09,1.27,3.71,1.27h11c.87,0,1.59-.33,2.18-1,.59-.67.88-1.44.88-2.3,0-1.34-.66-2.3-1.97-2.88l-15.86-7.14c-1.52-.68-2.7-1.66-3.52-2.95-.82-1.29-1.23-2.6-1.23-3.94,0-2.11.73-3.94,2.2-5.48,1.46-1.55,3.27-2.32,5.43-2.32Z"/>
    <path class="cls-2" d="m507.52,128.45h-5.91c-2.44,0-4.54-.87-6.29-2.6-1.76-1.73-2.64-3.82-2.64-6.26v-19.16h-3.02c-.82,0-1.52-.28-2.09-.84-.57-.56-.86-1.27-.86-2.11s.29-1.52.86-2.09c.57-.57,1.27-.86,2.09-.86h3.09v-7.24c0-.82.29-1.52.86-2.09.57-.57,1.27-.86,2.09-.86.77,0,1.46.29,2.06.88.6.59.9,1.28.9,2.07v7.24h11.88c.8,0,1.49.29,2.07.88.59.59.88,1.28.88,2.07s-.29,1.52-.88,2.09c-.59.58-1.28.86-2.07.86h-11.95v19.16c0,.8.3,1.49.9,2.07.6.59,1.31.88,2.13.88h5.77c1.57,0,2.61-.85,3.13-2.55.52-1.7,1.51-2.55,2.99-2.55.87,0,1.58.29,2.13.86.55.58.83,1.3.83,2.16,0,1.78-.84,3.56-2.51,5.33-1.68,1.77-3.81,2.65-6.42,2.65Z"/>
    <path class="cls-2" d="m560.01,105.17v12.48c0,2.65-1.25,5.1-3.74,7.35s-5.07,3.38-7.72,3.38h-6.93c-2.7,0-5.27-1.14-7.73-3.43s-3.69-4.72-3.69-7.29v-12.48c0-2.58,1.2-5.01,3.6-7.29,2.4-2.29,5.01-3.43,7.82-3.43h6.93c2.65-.05,5.22,1.05,7.72,3.3s3.74,4.72,3.74,7.42Zm-23.84.25v11.95c0,1.08.39,1.93,1.16,2.57l2.21,1.9c.49.42,1.18.63,2.07.63h6.86c1.01,0,1.92-.36,2.74-1.09l1.79-1.58c.73-.56,1.09-1.35,1.09-2.36v-11.95c0-1.17-.36-2.04-1.09-2.6l-2.07-1.65c-.7-.58-1.52-.88-2.46-.88h-6.12c-1.34,0-2.37.32-3.09.95l-2,1.72c-.73.61-1.09,1.41-1.09,2.39Z"/>
    <path class="cls-2" d="m587.73,101.38l-8.07,5.24v18.88c0,.8-.29,1.49-.88,2.07-.59.59-1.28.88-2.07.88s-1.49-.29-2.07-.88c-.59-.58-.88-1.28-.88-2.07v-28.02c0-.82.29-1.53.86-2.13.57-.6,1.27-.9,2.09-.9s1.49.3,2.07.9c.59.6.88,1.31.88,2.13v1.97l5.39-3.27c1.81-1.15,3.85-1.72,6.13-1.72h2.75c2.35,0,4.38.83,6.09,2.5,1.71,1.67,2.62,3.71,2.71,6.15l.81,22.39c.02.8-.26,1.49-.84,2.07-.59.59-1.29.88-2.11.88-.77,0-1.45-.26-2.04-.79-.59-.53-.89-1.25-.91-2.16l-.88-22.04c-.07-2.06-1.15-3.09-3.24-3.09h-2.89c-.89,0-1.86.34-2.89,1.02Z"/>
    <path class="cls-2" d="m646.99,105.63v7.14c0,.8-.29,1.49-.88,2.07-.59.59-1.28.88-2.07.88h-20.88v1.72c0,1.01.43,1.86,1.3,2.57l1.72,1.44c.94.73,1.83,1.09,2.67,1.09h15.19c.8,0,1.49.29,2.07.86.59.58.88,1.27.88,2.09s-.3,1.49-.9,2.07c-.6.59-1.28.88-2.06.88h-15.57c-1.03,0-2.12-.22-3.25-.65-1.14-.43-1.97-.88-2.51-1.35l-2.64-2.32c-.82-.66-1.51-1.57-2.06-2.74-.55-1.17-.83-2.25-.83-3.23v-13.54c0-.77.3-1.82.9-3.13.6-1.31,1.35-2.33,2.27-3.06l2.46-1.93c1.62-1.31,3.41-1.97,5.38-1.97h8.3c2.09,0,4.05.87,5.91,2.6l2.21,2.11c1.59,1.43,2.39,3.56,2.39,6.4Zm-23.77-.46v4.57h17.93v-4.11c0-1.1-.34-1.95-1.02-2.53l-1.72-1.51c-.89-.73-1.69-1.09-2.39-1.09h-7.42c-.91,0-1.75.32-2.5.95l-1.72,1.44c-.77.59-1.16,1.35-1.16,2.29Z"/>
  </g>
  <g>
    <path class="cls-2" d="m462.9,193.1l-.91,4.8c-1.27-.92-2.58-1.62-3.94-2.09s-2.77-.7-4.22-.7c-2.58,0-4.68.64-6.3,1.92s-2.44,2.91-2.44,4.9c0,1.11.38,2.01,1.15,2.7s2.16,1.34,4.17,1.97l2.84.91c2.55.78,4.41,1.82,5.59,3.13s1.77,2.96,1.77,4.98c0,3.67-1.3,6.58-3.89,8.73s-6.13,3.22-10.62,3.22c-1.62,0-3.22-.18-4.79-.53s-3.14-.88-4.7-1.58l.96-4.9c1.53,1.08,3.08,1.88,4.65,2.39s3.23.77,4.98.77c2.58,0,4.67-.69,6.28-2.06s2.41-3.12,2.41-5.23c0-1.28-.34-2.27-1.03-2.98s-2.07-1.38-4.15-2.02l-2.37-.77c-2.88-.91-4.89-1.93-6.04-3.08s-1.72-2.67-1.72-4.56c0-3.45,1.29-6.28,3.87-8.47s5.95-3.29,10.1-3.29c1.25,0,2.58.16,4,.47s2.86.77,4.35,1.36Z"/>
    <path class="cls-2" d="m474.12,190.43h4.48l-3.98,20.48,12.87-10.27h5.65l-12.19,9.89,8.74,16.36h-4.99l-7.2-13.64-3.94,3.12-2.06,10.52h-4.48l7.1-36.47Z"/>
    <path class="cls-2" d="m502.2,200.64h11.04l-4.45,22.9h8.55l-.68,3.35h-21.42l.68-3.35h8.55l3.77-19.55h-6.7l.66-3.35Zm8.7-10.22h4.31l-1.05,5.46h-4.31l1.05-5.46Z"/>
    <path class="cls-2" d="m547.91,210.63l-3.16,16.27h-4.31l3.16-16.29c.02-.06.04-.17.07-.33.23-1.11.35-1.97.35-2.58,0-1.27-.36-2.24-1.09-2.92s-1.77-1.02-3.13-1.02c-1.98,0-3.67.73-5.06,2.18s-2.34,3.49-2.86,6.12l-2.88,14.84h-4.31l5.13-26.25h4.31l-.75,3.94c1.17-1.52,2.44-2.66,3.81-3.42s2.82-1.15,4.35-1.15c2.17,0,3.86.57,5.06,1.7s1.8,2.71,1.8,4.75c0,.5-.04,1.12-.13,1.85s-.21,1.51-.36,2.32Z"/>
    <path class="cls-2" d="m585.03,191.9h26.72l-.77,3.98h-10.99l-6,31.01h-4.78l6.05-31.01h-10.99l.77-3.98Z"/>
    <path class="cls-2" d="m626.12,200.01c3.06,0,5.39.84,7,2.51s2.4,4.12,2.4,7.34c0,2.16-.32,4.3-.96,6.43s-1.54,4.05-2.7,5.75c-1.23,1.84-2.73,3.23-4.5,4.15s-3.8,1.38-6.09,1.38c-2.92,0-5.17-.86-6.75-2.57s-2.37-4.15-2.37-7.32c0-2.11.32-4.22.96-6.33s1.55-4.05,2.72-5.81c1.23-1.81,2.72-3.19,4.46-4.12s3.68-1.41,5.82-1.41Zm-.4,3.66c-2.56,0-4.7,1.34-6.41,4.01s-2.57,6.07-2.57,10.2c0,2.02.44,3.53,1.31,4.54s2.19,1.51,3.94,1.51c2.56,0,4.7-1.34,6.41-4.01s2.57-6.07,2.57-10.2c0-2.02-.44-3.53-1.31-4.54s-2.19-1.51-3.94-1.51Z"/>
    <path class="cls-2" d="m663.5,210.63l-3.16,16.27h-4.31l3.16-16.29c.02-.06.04-.17.07-.33.23-1.11.35-1.97.35-2.58,0-1.27-.36-2.24-1.09-2.92s-1.77-1.02-3.13-1.02c-1.98,0-3.67.73-5.06,2.18s-2.34,3.49-2.86,6.12l-2.88,14.84h-4.31l5.13-26.25h4.31l-.75,3.94c1.17-1.52,2.44-2.66,3.81-3.42s2.82-1.15,4.35-1.15c2.17,0,3.86.57,5.06,1.7s1.8,2.71,1.8,4.75c0,.5-.04,1.12-.13,1.85s-.21,1.51-.36,2.32Z"/>
    <path class="cls-2" d="m689.73,225.56c-1.64.67-3.24,1.18-4.8,1.51s-3.15.5-4.76.5c-3.48,0-6.13-.87-7.95-2.61s-2.72-4.29-2.72-7.63c0-2.44.47-4.83,1.41-7.17s2.23-4.37,3.89-6.07c1.3-1.34,2.73-2.37,4.3-3.07s3.21-1.05,4.91-1.05c2.91,0,5.23.89,6.97,2.68s2.61,4.18,2.61,7.16c0,.53-.04,1.19-.12,1.98s-.21,1.79-.4,3.01h-18.91c-.09.5-.16.95-.21,1.36s-.07.77-.07,1.08c0,2.17.6,3.83,1.8,4.97s2.95,1.71,5.25,1.71c1.38,0,2.88-.22,4.51-.67s3.34-1.11,5.12-1.98l-.84,4.29Zm-.54-14.11c.09-.42.16-.77.19-1.04s.05-.54.05-.79c0-1.88-.51-3.34-1.52-4.38s-2.43-1.57-4.24-1.57c-1.92,0-3.68.7-5.26,2.11s-2.72,3.3-3.41,5.67h14.2Z"/>
    <path class="cls-2" d="m747.12,225.65c-1.31.64-2.64,1.12-3.97,1.44s-2.71.48-4.14.48c-3.59,0-6.38-1.04-8.36-3.12s-2.96-4.99-2.96-8.74c0-3.44.55-6.84,1.64-10.22s2.53-6.13,4.31-8.27c1.67-2.03,3.52-3.53,5.53-4.5s4.31-1.45,6.89-1.45c1.25,0,2.49.16,3.73.49s2.44.8,3.61,1.43l-.96,4.85c-1-.98-2.05-1.72-3.16-2.2s-2.29-.73-3.54-.73c-1.48,0-2.86.32-4.12.95s-2.45,1.6-3.56,2.89c-1.62,1.92-2.93,4.38-3.93,7.38s-1.49,6.01-1.49,9.02c0,2.7.61,4.77,1.83,6.21s2.98,2.16,5.27,2.16c1.33,0,2.7-.25,4.11-.75s2.81-1.23,4.18-2.18l-.91,4.85Z"/>
    <path class="cls-2" d="m767.96,217.33c-.11.55-.19,1.03-.25,1.45s-.08.77-.08,1.05c0,1.14.35,1.99,1.04,2.55s1.75.84,3.18.84h4.95l-.73,3.66h-4.85c-2.7,0-4.71-.5-6.04-1.49s-1.98-2.51-1.98-4.56c0-.44.04-.97.12-1.59s.19-1.3.33-2.02l4.95-23.7h-7.41l.68-3.38h11.72l-5.62,27.16Z"/>
    <path class="cls-2" d="m807.71,211.92l-2.93,14.98h-4.31l.75-3.89c-1.12,1.47-2.45,2.6-3.98,3.39s-3.16,1.18-4.88,1.18c-2.39,0-4.3-.65-5.73-1.96s-2.14-3.04-2.14-5.19c0-3.06,1.21-5.51,3.62-7.35s5.68-2.75,9.81-2.75h5.77l.28-1.43c.03-.14.05-.29.07-.45s.02-.38.02-.66c0-1.33-.49-2.35-1.48-3.06s-2.39-1.07-4.22-1.07c-1.34,0-2.79.2-4.35.6s-3.2,1-4.93,1.79l.82-4.22c1.69-.61,3.29-1.07,4.8-1.37s2.97-.46,4.36-.46c2.91,0,5.17.64,6.79,1.92s2.43,3.05,2.43,5.32c0,.5-.05,1.16-.14,1.97s-.23,1.71-.42,2.7Zm-8.7,1.78c-1.86,0-3.24.06-4.15.18s-1.7.32-2.37.6c-1.06.42-1.91,1.11-2.55,2.07s-.96,2.01-.96,3.15c0,1.3.4,2.33,1.21,3.11s1.89,1.16,3.27,1.16c2.31,0,4.31-.83,5.99-2.48s2.82-3.93,3.41-6.82l.19-.96h-4.03Z"/>
    <path class="cls-2" d="m836.94,201.56l-.82,4.22c-1.11-.7-2.28-1.24-3.5-1.61s-2.44-.55-3.64-.55c-2.14,0-3.8.4-4.98,1.2s-1.77,1.91-1.77,3.35c0,1.53,1.73,2.73,5.18,3.61.23.06.41.11.52.14l1.69.42c1.83.48,3.2,1.21,4.1,2.17s1.36,2.16,1.36,3.6c0,2.83-1.12,5.11-3.38,6.86s-5.23,2.61-8.95,2.61c-1.27,0-2.59-.14-3.96-.41s-2.84-.68-4.38-1.23l.87-4.45c1.47.83,2.89,1.45,4.28,1.86s2.72.62,4.02.62c2.08,0,3.77-.46,5.09-1.39s1.97-2.11,1.97-3.55c0-1.55-1.53-2.73-4.59-3.54-.28-.06-.5-.12-.66-.16l-1.57-.42c-2.02-.52-3.5-1.27-4.44-2.27s-1.42-2.3-1.42-3.91c0-2.66,1.03-4.77,3.09-6.34s4.84-2.36,8.34-2.36c1.38,0,2.7.13,3.96.39s2.47.64,3.61,1.16Z"/>
    <path class="cls-2" d="m865.84,201.56l-.82,4.22c-1.11-.7-2.28-1.24-3.5-1.61s-2.44-.55-3.64-.55c-2.14,0-3.8.4-4.98,1.2s-1.77,1.91-1.77,3.35c0,1.53,1.73,2.73,5.18,3.61.23.06.41.11.52.14l1.69.42c1.83.48,3.2,1.21,4.1,2.17s1.36,2.16,1.36,3.6c0,2.83-1.12,5.11-3.38,6.86s-5.23,2.61-8.95,2.61c-1.27,0-2.59-.14-3.96-.41s-2.84-.68-4.38-1.23l.87-4.45c1.47.83,2.89,1.45,4.28,1.86s2.72.62,4.02.62c2.08,0,3.77-.46,5.09-1.39s1.97-2.11,1.97-3.55c0-1.55-1.53-2.73-4.59-3.54-.28-.06-.5-.12-.66-.16l-1.57-.42c-2.02-.52-3.5-1.27-4.44-2.27s-1.42-2.3-1.42-3.91c0-2.66,1.03-4.77,3.09-6.34s4.84-2.36,8.34-2.36c1.38,0,2.7.13,3.96.39s2.47.64,3.61,1.16Z"/>
    <path class="cls-2" d="m877.88,200.64h11.04l-4.45,22.9h8.55l-.68,3.35h-21.42l.68-3.35h8.55l3.77-19.55h-6.7l.66-3.35Zm8.7-10.22h4.31l-1.05,5.46h-4.31l1.05-5.46Z"/>
    <path class="cls-2" d="m927.57,190.43l-.73,3.59h-4.88c-1.48,0-2.6.32-3.35.97s-1.28,1.76-1.59,3.34l-.49,2.32h9.02l-.61,3.35h-9.02l-4.48,22.9h-4.31l4.45-22.9h-7.01l.68-3.35h6.96l.38-1.83c.59-3.02,1.64-5.17,3.15-6.46s3.72-1.93,6.64-1.93h5.18Z"/>
    <path class="cls-2" d="m935.68,200.64h11.04l-4.45,22.9h8.55l-.68,3.35h-21.42l.68-3.35h8.55l3.77-19.55h-6.7l.66-3.35Zm8.7-10.22h4.31l-1.05,5.46h-4.31l1.05-5.46Z"/>
    <path class="cls-2" d="m978.71,225.56c-1.64.67-3.24,1.18-4.8,1.51s-3.15.5-4.76.5c-3.48,0-6.13-.87-7.95-2.61s-2.72-4.29-2.72-7.63c0-2.44.47-4.83,1.41-7.17s2.23-4.37,3.89-6.07c1.3-1.34,2.73-2.37,4.3-3.07s3.21-1.05,4.91-1.05c2.91,0,5.23.89,6.97,2.68s2.61,4.18,2.61,7.16c0,.53-.04,1.19-.12,1.98s-.21,1.79-.4,3.01h-18.91c-.09.5-.16.95-.21,1.36s-.07.77-.07,1.08c0,2.17.6,3.83,1.8,4.97s2.95,1.71,5.25,1.71c1.38,0,2.88-.22,4.51-.67s3.34-1.11,5.12-1.98l-.84,4.29Zm-.54-14.11c.09-.42.16-.77.19-1.04s.05-.54.05-.79c0-1.88-.51-3.34-1.52-4.38s-2.43-1.57-4.24-1.57c-1.92,0-3.68.7-5.26,2.11s-2.72,3.3-3.41,5.67h14.2Z"/>
    <path class="cls-2" d="m1012.84,206.06c-.7-.69-1.52-1.2-2.45-1.55s-1.99-.52-3.18-.52c-2.56,0-4.76.89-6.59,2.68s-3.04,4.24-3.63,7.35l-2.51,12.87h-4.31l5.09-26.25h4.31l-.94,5.13c1.05-1.88,2.4-3.3,4.07-4.29s3.55-1.48,5.66-1.48c1.11,0,2.11.14,3.01.43s1.66.71,2.29,1.25l-.82,4.36Z"/>
  </g>
</svg>